<svg width="144" height="21" viewBox="0 0 144 21" fill="none" xmlns="http://www.w3.org/2000/svg">
<path d="M5.67963 0.958008H17.5794L14.9176 19.0731L11.7007 20.8181H0.242188L2.36307 15.6384H9.45167L10.8466 6.13769H7.80051L5.67963 0.958008Z" fill="white"/>
<path d="M22.1343 0.958008H34.6176L33.4077 9.21227L30.2478 6.13769H24.2125L22.8318 15.6384H29.8634L32.7957 13.3532L31.6996 20.8181H16.099L18.59 3.83869L22.1343 0.958008Z" fill="white"/>
<path d="M34.8454 0.958008H51.6417L50.4318 9.21227L47.2718 6.13769H41.2365L40.8379 8.87988H46.2469L45.4925 14.0596H40.0835L39.8416 15.6384H46.8875L49.8197 13.3532L48.7237 20.8181H33.123L35.614 3.83869H37.8061L34.8454 0.958008Z" fill="white"/>
<path d="M64.7513 0.958008H70.5304L67.6124 20.8181H61.8191L57.4065 10.805L55.9119 20.8181H50.1471L50.1613 20.735L53.0651 0.958008H58.8584L63.271 10.9711L64.7513 0.958008Z" fill="white"/>
<path d="M69.7617 0.958008H88.9493L88.1807 6.13769H82.302L80.1384 20.8181H74.1743L76.3237 6.13769H71.0286L71.541 2.68919L69.7617 0.958008Z" fill="white"/>
<path d="M89.1628 0.958008H105.959L104.749 9.21227L101.589 6.13769H95.554L95.1554 8.87988H100.564L99.81 14.0596H94.401L94.159 15.6384H101.205L104.137 13.3532L103.041 20.8181H87.4405L89.9315 3.83869H92.1236L89.1628 0.958008Z" fill="white"/>
<path d="M106.201 0.958008H121.047L124.15 3.97718L122.969 12.0514L120.905 14.0596H118.3L122.271 20.8181H116.137L112.165 14.0596H111.425L110.429 20.8181H104.465L106.956 3.83869H109.162L106.201 0.958008ZM112.592 6.13769L112.194 8.87988H117.46L117.859 6.13769H112.592Z" fill="white"/>
<path d="M129.161 0.958008H143.238L141.117 6.13769H131.239L130.926 8.29821H138.612L141.715 11.3174L140.32 20.8181H123.111L126.3 15.6384H135.111L135.424 13.4779H124.193L125.602 3.83869L129.161 0.958008Z" fill="white"/>
</svg>
